<svg width="23" height="26" viewBox="0 0 23 26" fill="none" xmlns="http://www.w3.org/2000/svg">
<g filter="url(#filter0_d_518_42)">
<path d="M15.186 6.20703C15.8589 6.20703 16.3999 6.78197 16.3999 7.48535C16.3999 8.18873 15.8589 8.76367 15.186 8.76367C14.5419 8.76348 14.0204 8.23635 13.9771 7.57422H7.39404C6.66384 7.57428 6.01624 7.96245 5.62744 8.55469C6.12135 8.71758 6.47789 9.20368 6.47803 9.77441C6.47803 10.3729 6.08551 10.8762 5.5542 11.0137C5.93094 11.6738 6.61437 12.1161 7.39404 12.1162H10.7827C10.9042 11.5471 11.3858 11.1191 11.9663 11.1191C12.5468 11.1191 13.0284 11.5471 13.1499 12.1162H14.5981L14.5991 12.1172C15.59 12.1386 16.45 12.7131 16.9214 13.5566C16.9263 13.5566 16.9311 13.5566 16.936 13.5566C17.6088 13.5566 18.1497 14.1317 18.1499 14.835C18.1499 15.4769 17.6992 16.0101 17.1089 16.0986C16.7038 17.1761 15.7084 17.9424 14.5415 17.9424H11.6948L11.645 17.8926V17.3506L11.6948 17.3008H14.5415C15.3898 17.3008 16.1242 16.7758 16.4731 16.0166C16.0317 15.8245 15.7222 15.3666 15.7222 14.835C15.7223 14.3719 15.9577 13.9654 16.3101 13.7412C15.9609 13.2078 15.4022 12.8395 14.7612 12.7705L14.5415 12.7588H13.1294C12.9814 13.2872 12.5191 13.6758 11.9663 13.6758C11.4136 13.6758 10.9512 13.2872 10.8032 12.7588H7.3374L7.33545 12.7568C6.21484 12.7321 5.25768 12.0025 4.84619 10.9736C4.38087 10.7938 4.05029 10.3239 4.05029 9.77441C4.05043 9.19484 4.4175 8.70207 4.92334 8.54688C5.37671 7.59166 6.31177 6.93171 7.39404 6.93164H14.0942C14.2899 6.50432 14.7031 6.20718 15.186 6.20703ZM17.1118 2.9502L17.146 3.03613C17.033 3.14295 16.9202 3.25031 16.8071 3.35742C16.706 3.45325 16.6046 3.54887 16.5034 3.64453C16.6054 3.75465 16.7071 3.86529 16.8091 3.97559C16.9222 4.09791 17.0359 4.21977 17.1489 4.3418L17.1118 4.42578H15.3813V5.51172L15.3315 5.56152H15.0464L14.9966 5.51172V3L15.0464 2.9502H17.1118Z" fill="#5E5E5E" stroke="#5E5E5E" stroke-width="0.1" stroke-linejoin="bevel"/>
</g>
<defs>
<filter id="filter0_d_518_42" x="-2.8999" y="0" width="28" height="28.8929" filterUnits="userSpaceOnUse" color-interpolation-filters="sRGB">
<feFlood flood-opacity="0" result="BackgroundImageFix"/>
<feColorMatrix in="SourceAlpha" type="matrix" values="0 0 0 0 0 0 0 0 0 0 0 0 0 0 0 0 0 0 127 0" result="hardAlpha"/>
<feOffset dy="4"/>
<feGaussianBlur stdDeviation="2"/>
<feComposite in2="hardAlpha" operator="out"/>
<feColorMatrix type="matrix" values="0 0 0 0 0 0 0 0 0 0 0 0 0 0 0 0 0 0 0.25 0"/>
<feBlend mode="normal" in2="BackgroundImageFix" result="effect1_dropShadow_518_42"/>
<feBlend mode="normal" in="SourceGraphic" in2="effect1_dropShadow_518_42" result="shape"/>
</filter>
</defs>
</svg>
