<svg width="20" height="20" viewBox="0 0 20 20" fill="none" xmlns="http://www.w3.org/2000/svg">
<path d="M5.72852 7.00098C7.66228 7.00098 9.31472 8.2108 9.97363 9.91406C10.6329 8.21175 12.2858 7.00313 14.2188 7.00293H14.2695V7.41113C14.2695 9.71885 12.5486 11.6264 10.3223 11.9229V15.5811L10.2744 15.583C10.1831 15.5871 10.0919 15.5869 10 15.5869C9.90813 15.5869 9.81694 15.5871 9.72559 15.583L9.67773 15.5811V11.9648H9.66797V11.9268C7.42107 11.649 5.67871 9.73153 5.67871 7.40918V7.00098H5.72852ZM9.77734 17.0518L9.72559 17.0498C5.96485 16.9065 2.9502 13.8926 2.9502 10.0029C2.95024 6.11309 6.11177 2.9502 10 2.9502C13.8886 2.9502 17.0498 6.2037 17.0498 10.0029C17.0498 13.802 14.0356 16.9065 10.2744 17.0498L10.2227 17.0518V16.3525L10.2705 16.3506C13.6481 16.2093 16.3506 13.5071 16.3506 10.0029C16.3505 6.49899 13.5024 3.64941 10 3.64941C6.49807 3.64941 3.64946 6.59072 3.64941 10.0029C3.64941 13.4154 6.35241 16.2093 9.72949 16.3506L9.77734 16.3525V17.0518Z" fill="#5E5E5E" stroke="#5E5E5E" stroke-width="0.1"/>
</svg>
